<svg xmlns="http://www.w3.org/2000/svg" viewBox="0 0 512 512">
  <rect x="28" y="28" width="456" height="456" rx="112" fill="#122A5C"/>
  <circle cx="115" cy="95" r="245" fill="#2D5CBE" opacity=".34"/>
  <path d="M238 174 118 150v171l120 34V174Z" fill="#FFFFFF"/>
  <path d="M274 174 394 150v171l-120 34V174Z" fill="#FFFFFF"/>
  <path d="M238 174 118 150v171l120 34V174Z" fill="none" stroke="#E4ECFC" stroke-width="14" stroke-linejoin="round"/>
  <path d="M274 174 394 150v171l-120 34V174Z" fill="none" stroke="#E4ECFC" stroke-width="14" stroke-linejoin="round"/>
  <rect x="247" y="180" width="18" height="170" rx="8" fill="#BFD1F5"/>
  <rect x="154" y="205" width="64" height="9" rx="5" fill="#214AA5"/>
  <rect x="154" y="242" width="64" height="9" rx="5" fill="#214AA5"/>
  <rect x="154" y="279" width="64" height="9" rx="5" fill="#214AA5"/>
  <rect x="294" y="205" width="64" height="9" rx="5" fill="#214AA5"/>
  <rect x="294" y="242" width="64" height="9" rx="5" fill="#214AA5"/>
  <rect x="294" y="279" width="64" height="9" rx="5" fill="#214AA5"/>
  <rect x="28" y="28" width="456" height="456" rx="112" fill="none" stroke="#7E9EE0" stroke-width="10"/>
</svg>
